<mxfile host="app.diagrams.net" modified="2023-10-12T12:38:36.800Z" agent="Mozilla/5.0 (Windows NT 10.0; Win64; x64) AppleWebKit/537.36 (KHTML, like Gecko) Chrome/117.0.0.0 Safari/537.36" etag="CIcEQBbxGBOMCIJ_tmEK" version="21.7.2" type="device">
  <diagram name="Page-1" id="9DxLFLcOH6YBi1vv-unC">
    <mxGraphModel dx="880" dy="425" grid="1" gridSize="10" guides="1" tooltips="1" connect="1" arrows="1" fold="1" page="1" pageScale="1" pageWidth="850" pageHeight="1100" math="0" shadow="0">
      <root>
        <mxCell id="0" />
        <mxCell id="1" parent="0" />
        <mxCell id="MGjnhTje5mc4lzbRgxG5-1" value="&lt;b&gt;START&lt;/b&gt;" style="ellipse;whiteSpace=wrap;html=1;fillColor=#dae8fc;strokeColor=#6c8ebf;" vertex="1" parent="1">
          <mxGeometry x="40" y="80" width="110" height="60" as="geometry" />
        </mxCell>
        <mxCell id="MGjnhTje5mc4lzbRgxG5-2" value="&lt;b&gt;END&lt;/b&gt;" style="ellipse;whiteSpace=wrap;html=1;fillColor=#dae8fc;strokeColor=#6c8ebf;" vertex="1" parent="1">
          <mxGeometry x="50" y="360" width="120" height="60" as="geometry" />
        </mxCell>
        <mxCell id="MGjnhTje5mc4lzbRgxG5-3" value="if credentials are not saved on credentials manager, prompt the user to provide their email and password" style="rounded=0;whiteSpace=wrap;html=1;" vertex="1" parent="1">
          <mxGeometry x="340" y="80" width="190" height="60" as="geometry" />
        </mxCell>
        <mxCell id="MGjnhTje5mc4lzbRgxG5-4" value="Try to get secure credentials" style="rounded=0;whiteSpace=wrap;html=1;" vertex="1" parent="1">
          <mxGeometry x="170" y="80" width="140" height="60" as="geometry" />
        </mxCell>
        <mxCell id="MGjnhTje5mc4lzbRgxG5-5" value="Terminate the workflow if the user does not provide password and email" style="rounded=0;whiteSpace=wrap;html=1;" vertex="1" parent="1">
          <mxGeometry x="590" y="80" width="160" height="60" as="geometry" />
        </mxCell>
        <mxCell id="MGjnhTje5mc4lzbRgxG5-6" value="use the user input i.e email and password to login into the ACME webpage" style="rounded=0;whiteSpace=wrap;html=1;" vertex="1" parent="1">
          <mxGeometry x="590" y="220" width="160" height="60" as="geometry" />
        </mxCell>
        <mxCell id="MGjnhTje5mc4lzbRgxG5-7" value="on the user options, click on download client and support" style="rounded=0;whiteSpace=wrap;html=1;" vertex="1" parent="1">
          <mxGeometry x="360" y="220" width="190" height="60" as="geometry" />
        </mxCell>
        <mxCell id="MGjnhTje5mc4lzbRgxG5-8" value="download the legacy system" style="rounded=0;whiteSpace=wrap;html=1;" vertex="1" parent="1">
          <mxGeometry x="200" y="220" width="130" height="60" as="geometry" />
        </mxCell>
        <mxCell id="MGjnhTje5mc4lzbRgxG5-9" value="log out and close the window" style="rounded=0;whiteSpace=wrap;html=1;" vertex="1" parent="1">
          <mxGeometry x="30" y="220" width="140" height="60" as="geometry" />
        </mxCell>
        <mxCell id="MGjnhTje5mc4lzbRgxG5-12" value="internal app and windows credentials manager" style="text;html=1;strokeColor=none;fillColor=none;align=center;verticalAlign=middle;whiteSpace=wrap;rounded=0;" vertex="1" parent="1">
          <mxGeometry x="170" y="140" width="140" height="30" as="geometry" />
        </mxCell>
        <mxCell id="MGjnhTje5mc4lzbRgxG5-13" value="internal app" style="text;html=1;strokeColor=none;fillColor=none;align=center;verticalAlign=middle;whiteSpace=wrap;rounded=0;" vertex="1" parent="1">
          <mxGeometry x="365" y="140" width="105" height="30" as="geometry" />
        </mxCell>
        <mxCell id="MGjnhTje5mc4lzbRgxG5-14" value="internal app" style="text;html=1;strokeColor=none;fillColor=none;align=center;verticalAlign=middle;whiteSpace=wrap;rounded=0;" vertex="1" parent="1">
          <mxGeometry x="630" y="140" width="90" height="30" as="geometry" />
        </mxCell>
        <mxCell id="MGjnhTje5mc4lzbRgxG5-15" value="internal app and web application" style="text;html=1;strokeColor=none;fillColor=none;align=center;verticalAlign=middle;whiteSpace=wrap;rounded=0;" vertex="1" parent="1">
          <mxGeometry x="610" y="280" width="120" height="30" as="geometry" />
        </mxCell>
        <mxCell id="MGjnhTje5mc4lzbRgxG5-16" value="internal app and web&lt;br&gt;&amp;nbsp;application" style="text;html=1;align=center;verticalAlign=middle;resizable=0;points=[];autosize=1;strokeColor=none;fillColor=none;" vertex="1" parent="1">
          <mxGeometry x="390" y="275" width="130" height="40" as="geometry" />
        </mxCell>
        <mxCell id="MGjnhTje5mc4lzbRgxG5-17" value="internal app and web&lt;br&gt;&amp;nbsp;application" style="text;html=1;align=center;verticalAlign=middle;resizable=0;points=[];autosize=1;strokeColor=none;fillColor=none;" vertex="1" parent="1">
          <mxGeometry x="200" y="280" width="130" height="40" as="geometry" />
        </mxCell>
        <mxCell id="MGjnhTje5mc4lzbRgxG5-18" value="internal app and web&lt;br&gt;&amp;nbsp;application" style="text;html=1;align=center;verticalAlign=middle;resizable=0;points=[];autosize=1;strokeColor=none;fillColor=none;" vertex="1" parent="1">
          <mxGeometry x="35" y="280" width="130" height="40" as="geometry" />
        </mxCell>
        <mxCell id="MGjnhTje5mc4lzbRgxG5-20" value="" style="endArrow=classic;html=1;rounded=0;entryX=0;entryY=0.5;entryDx=0;entryDy=0;exitX=1;exitY=0.5;exitDx=0;exitDy=0;" edge="1" parent="1" source="MGjnhTje5mc4lzbRgxG5-3" target="MGjnhTje5mc4lzbRgxG5-5">
          <mxGeometry width="50" height="50" relative="1" as="geometry">
            <mxPoint x="400" y="250" as="sourcePoint" />
            <mxPoint x="450" y="200" as="targetPoint" />
          </mxGeometry>
        </mxCell>
        <mxCell id="MGjnhTje5mc4lzbRgxG5-21" value="" style="endArrow=classic;html=1;rounded=0;entryX=0;entryY=0.5;entryDx=0;entryDy=0;exitX=1;exitY=0.5;exitDx=0;exitDy=0;" edge="1" parent="1" source="MGjnhTje5mc4lzbRgxG5-4" target="MGjnhTje5mc4lzbRgxG5-3">
          <mxGeometry width="50" height="50" relative="1" as="geometry">
            <mxPoint x="400" y="250" as="sourcePoint" />
            <mxPoint x="450" y="200" as="targetPoint" />
          </mxGeometry>
        </mxCell>
        <mxCell id="MGjnhTje5mc4lzbRgxG5-22" value="" style="endArrow=classic;html=1;rounded=0;entryX=1;entryY=0.5;entryDx=0;entryDy=0;" edge="1" parent="1" target="MGjnhTje5mc4lzbRgxG5-8">
          <mxGeometry width="50" height="50" relative="1" as="geometry">
            <mxPoint x="360" y="250" as="sourcePoint" />
            <mxPoint x="450" y="200" as="targetPoint" />
          </mxGeometry>
        </mxCell>
        <mxCell id="MGjnhTje5mc4lzbRgxG5-23" value="" style="endArrow=classic;html=1;rounded=0;entryX=1;entryY=0.5;entryDx=0;entryDy=0;exitX=0;exitY=0.5;exitDx=0;exitDy=0;" edge="1" parent="1" source="MGjnhTje5mc4lzbRgxG5-6" target="MGjnhTje5mc4lzbRgxG5-7">
          <mxGeometry width="50" height="50" relative="1" as="geometry">
            <mxPoint x="400" y="250" as="sourcePoint" />
            <mxPoint x="450" y="200" as="targetPoint" />
          </mxGeometry>
        </mxCell>
        <mxCell id="MGjnhTje5mc4lzbRgxG5-25" value="" style="endArrow=classic;html=1;rounded=0;entryX=1;entryY=0.5;entryDx=0;entryDy=0;exitX=0;exitY=0.5;exitDx=0;exitDy=0;" edge="1" parent="1" source="MGjnhTje5mc4lzbRgxG5-8" target="MGjnhTje5mc4lzbRgxG5-9">
          <mxGeometry width="50" height="50" relative="1" as="geometry">
            <mxPoint x="400" y="250" as="sourcePoint" />
            <mxPoint x="450" y="200" as="targetPoint" />
          </mxGeometry>
        </mxCell>
        <mxCell id="MGjnhTje5mc4lzbRgxG5-29" value="" style="endArrow=none;dashed=1;html=1;rounded=0;entryX=1;entryY=1;entryDx=0;entryDy=0;exitX=0;exitY=1;exitDx=0;exitDy=0;" edge="1" parent="1" source="MGjnhTje5mc4lzbRgxG5-5" target="MGjnhTje5mc4lzbRgxG5-5">
          <mxGeometry width="50" height="50" relative="1" as="geometry">
            <mxPoint x="400" y="250" as="sourcePoint" />
            <mxPoint x="450" y="200" as="targetPoint" />
            <Array as="points">
              <mxPoint x="590" y="160" />
              <mxPoint x="750" y="160" />
            </Array>
          </mxGeometry>
        </mxCell>
        <mxCell id="MGjnhTje5mc4lzbRgxG5-32" value="" style="endArrow=none;dashed=1;html=1;rounded=0;entryX=1;entryY=1;entryDx=0;entryDy=0;exitX=0;exitY=1;exitDx=0;exitDy=0;" edge="1" parent="1" source="MGjnhTje5mc4lzbRgxG5-3" target="MGjnhTje5mc4lzbRgxG5-3">
          <mxGeometry width="50" height="50" relative="1" as="geometry">
            <mxPoint x="400" y="250" as="sourcePoint" />
            <mxPoint x="450" y="200" as="targetPoint" />
            <Array as="points">
              <mxPoint x="340" y="160" />
              <mxPoint x="530" y="160" />
            </Array>
          </mxGeometry>
        </mxCell>
        <mxCell id="MGjnhTje5mc4lzbRgxG5-33" value="" style="endArrow=none;dashed=1;html=1;dashPattern=1 3;strokeWidth=2;rounded=0;entryX=1;entryY=0;entryDx=0;entryDy=0;exitX=0;exitY=0;exitDx=0;exitDy=0;" edge="1" parent="1" source="MGjnhTje5mc4lzbRgxG5-12" target="MGjnhTje5mc4lzbRgxG5-12">
          <mxGeometry width="50" height="50" relative="1" as="geometry">
            <mxPoint x="400" y="250" as="sourcePoint" />
            <mxPoint x="450" y="200" as="targetPoint" />
            <Array as="points">
              <mxPoint x="170" y="170" />
              <mxPoint x="310" y="170" />
            </Array>
          </mxGeometry>
        </mxCell>
        <mxCell id="MGjnhTje5mc4lzbRgxG5-34" value="" style="endArrow=none;dashed=1;html=1;rounded=0;entryX=1;entryY=1;entryDx=0;entryDy=0;exitX=0;exitY=1;exitDx=0;exitDy=0;" edge="1" parent="1" source="MGjnhTje5mc4lzbRgxG5-6" target="MGjnhTje5mc4lzbRgxG5-6">
          <mxGeometry width="50" height="50" relative="1" as="geometry">
            <mxPoint x="400" y="250" as="sourcePoint" />
            <mxPoint x="450" y="200" as="targetPoint" />
            <Array as="points">
              <mxPoint x="590" y="310" />
              <mxPoint x="750" y="310" />
            </Array>
          </mxGeometry>
        </mxCell>
        <mxCell id="MGjnhTje5mc4lzbRgxG5-35" value="" style="endArrow=none;dashed=1;html=1;rounded=0;exitX=0;exitY=1;exitDx=0;exitDy=0;entryX=0.968;entryY=1.033;entryDx=0;entryDy=0;entryPerimeter=0;" edge="1" parent="1" source="MGjnhTje5mc4lzbRgxG5-7" target="MGjnhTje5mc4lzbRgxG5-7">
          <mxGeometry width="50" height="50" relative="1" as="geometry">
            <mxPoint x="400" y="250" as="sourcePoint" />
            <mxPoint x="450" y="200" as="targetPoint" />
            <Array as="points">
              <mxPoint x="360" y="320" />
              <mxPoint x="540" y="320" />
            </Array>
          </mxGeometry>
        </mxCell>
        <mxCell id="MGjnhTje5mc4lzbRgxG5-36" value="" style="endArrow=none;dashed=1;html=1;rounded=0;entryX=0.977;entryY=0.075;entryDx=0;entryDy=0;entryPerimeter=0;exitX=0;exitY=1;exitDx=0;exitDy=0;" edge="1" parent="1" source="MGjnhTje5mc4lzbRgxG5-8" target="MGjnhTje5mc4lzbRgxG5-17">
          <mxGeometry width="50" height="50" relative="1" as="geometry">
            <mxPoint x="400" y="250" as="sourcePoint" />
            <mxPoint x="450" y="200" as="targetPoint" />
            <Array as="points">
              <mxPoint x="200" y="320" />
              <mxPoint x="327" y="320" />
            </Array>
          </mxGeometry>
        </mxCell>
        <mxCell id="MGjnhTje5mc4lzbRgxG5-37" value="" style="endArrow=none;dashed=1;html=1;dashPattern=1 3;strokeWidth=2;rounded=0;" edge="1" parent="1">
          <mxGeometry width="50" height="50" relative="1" as="geometry">
            <mxPoint x="400" y="250" as="sourcePoint" />
            <mxPoint x="450" y="200" as="targetPoint" />
          </mxGeometry>
        </mxCell>
        <mxCell id="MGjnhTje5mc4lzbRgxG5-38" value="" style="endArrow=none;dashed=1;html=1;rounded=0;entryX=1.008;entryY=0.075;entryDx=0;entryDy=0;entryPerimeter=0;exitX=-0.023;exitY=-0.025;exitDx=0;exitDy=0;exitPerimeter=0;" edge="1" parent="1" source="MGjnhTje5mc4lzbRgxG5-18" target="MGjnhTje5mc4lzbRgxG5-18">
          <mxGeometry width="50" height="50" relative="1" as="geometry">
            <mxPoint x="400" y="250" as="sourcePoint" />
            <mxPoint x="450" y="200" as="targetPoint" />
            <Array as="points">
              <mxPoint x="30" y="320" />
              <mxPoint x="166" y="320" />
            </Array>
          </mxGeometry>
        </mxCell>
        <mxCell id="MGjnhTje5mc4lzbRgxG5-39" value="" style="endArrow=classic;startArrow=classic;html=1;rounded=0;entryX=0;entryY=0.5;entryDx=0;entryDy=0;exitX=1;exitY=0.5;exitDx=0;exitDy=0;" edge="1" parent="1" source="MGjnhTje5mc4lzbRgxG5-1" target="MGjnhTje5mc4lzbRgxG5-4">
          <mxGeometry width="50" height="50" relative="1" as="geometry">
            <mxPoint x="400" y="250" as="sourcePoint" />
            <mxPoint x="450" y="200" as="targetPoint" />
          </mxGeometry>
        </mxCell>
        <mxCell id="MGjnhTje5mc4lzbRgxG5-40" value="" style="endArrow=classic;html=1;rounded=0;entryX=0.5;entryY=0;entryDx=0;entryDy=0;" edge="1" parent="1" target="MGjnhTje5mc4lzbRgxG5-2">
          <mxGeometry width="50" height="50" relative="1" as="geometry">
            <mxPoint x="110" y="320" as="sourcePoint" />
            <mxPoint x="450" y="200" as="targetPoint" />
          </mxGeometry>
        </mxCell>
      </root>
    </mxGraphModel>
  </diagram>
</mxfile>
